<?xml version="1.0" standalone="no"?>
<!DOCTYPE svg PUBLIC "-//W3C//DTD SVG 20010904//EN"
 "http://www.w3.org/TR/2001/REC-SVG-20010904/DTD/svg10.dtd">
<svg version="1.0" xmlns="http://www.w3.org/2000/svg"
 width="1080.000000pt" height="1080.000000pt" viewBox="0 0 1080.000000 1080.000000"
 preserveAspectRatio="xMidYMid meet">

<g transform="translate(0.000000,1080.000000) scale(0.100000,-0.100000)"
fill="#000000" stroke="none">
<path d="M0 5400 l0 -5400 5400 0 5400 0 0 5400 0 5400 -5400 0 -5400 0 0
-5400z m5643 3243 c7 -94 26 -202 40 -229 7 -12 284 -296 617 -632 593 -598
605 -612 628 -674 34 -96 30 -164 -14 -257 -32 -69 -52 -92 -202 -238 -162
-160 -197 -187 -212 -164 -3 6 2 64 12 127 l18 116 -402 405 c-459 462 -535
537 -549 541 -5 2 -9 -52 -9 -132 l0 -136 376 -380 c207 -209 383 -392 391
-407 52 -100 57 -193 15 -286 -24 -51 -48 -80 -138 -162 -59 -55 -141 -134
-181 -175 -98 -100 -107 -95 -111 58 l-3 111 -170 171 c-93 93 -172 170 -175
170 -2 0 -4 -69 -4 -152 l0 -153 581 -585 580 -585 59 -120 c32 -66 68 -151
80 -190 12 -38 26 -80 31 -93 5 -13 14 -77 21 -142 12 -125 1 -295 -23 -370
-7 -19 -18 -55 -27 -80 -15 -48 -70 -163 -103 -219 -110 -185 -310 -366 -525
-475 -173 -88 -295 -126 -514 -164 -46 -8 -443 -7 -495 1 -330 51 -630 194
-839 402 -159 157 -256 315 -312 505 -38 128 -54 325 -35 420 56 274 141 459
299 654 75 91 258 263 290 271 23 6 47 -15 234 -202 114 -114 208 -213 208
-219 0 -6 -14 -17 -32 -25 -40 -16 -172 -110 -221 -157 -78 -75 -171 -224
-202 -323 -29 -95 -35 -122 -41 -206 -10 -142 18 -280 83 -407 200 -394 686
-582 1128 -434 268 89 467 284 562 553 26 75 28 90 28 235 0 157 -7 200 -51
297 -8 17 -14 34 -14 37 0 27 -181 259 -226 290 -17 11 -58 38 -90 60 -33 21
-140 119 -240 217 -99 99 -183 179 -187 179 -4 0 -7 -181 -7 -402 l0 -403 95
-102 c52 -55 95 -105 95 -110 0 -5 -31 -41 -68 -79 -37 -38 -98 -103 -135
-144 l-66 -75 -34 40 c-43 51 -203 207 -223 218 -7 4 -14 21 -14 36 0 23 18
45 95 116 l95 88 0 496 0 496 -685 690 c-752 759 -715 715 -715 843 0 79 26
130 116 223 41 41 74 78 74 82 0 3 50 58 112 122 149 155 151 155 158 -25 l5
-135 459 -462 c252 -255 462 -463 467 -463 5 0 9 68 9 151 l0 150 -402 405
c-222 223 -405 407 -407 409 -2 2 -7 36 -11 74 -8 72 0 114 34 180 8 14 56 67
108 117 51 50 140 139 197 198 61 62 111 105 120 104 13 -3 17 -26 21 -131 l5
-127 168 -168 167 -167 -1 141 -1 141 -106 107 -107 106 0 113 c0 107 1 114
30 158 43 68 374 409 395 409 15 0 19 -11 23 -67z m-2329 -6545 c26 -15 48
-37 59 -60 17 -35 17 -39 1 -73 -30 -64 -95 -60 -145 10 -22 31 -40 45 -55 45
-31 0 -37 -12 -44 -97 l-6 -73 43 0 c49 0 68 -23 58 -71 -6 -27 -9 -29 -56
-29 -33 0 -49 -4 -49 -13 0 -7 -5 -84 -11 -172 -12 -189 -10 -205 31 -205 38
0 57 -31 41 -67 l-11 -24 -143 7 c-151 7 -177 13 -177 44 0 35 12 50 40 50 15
0 32 6 38 13 6 7 16 81 22 163 14 216 14 214 -13 214 -29 0 -47 18 -47 46 0
42 11 54 46 54 31 0 34 3 34 29 0 67 50 155 110 195 77 51 157 55 234 14z
m4194 -18 c12 -11 25 -32 28 -46 8 -32 -24 -284 -38 -301 -17 -21 -56 -15 -72
10 -8 12 -26 75 -40 140 -37 167 -22 216 65 217 22 0 43 -8 57 -20z m-2588
-390 c0 -354 1 -381 18 -386 48 -15 66 -50 42 -80 -23 -27 -296 -16 -307 13
-10 27 6 63 30 63 53 1 52 -4 55 326 l3 306 -25 -6 c-20 -5 -29 -1 -43 20 -12
19 -14 30 -6 43 15 23 151 79 196 80 l37 1 0 -380z m3011 159 c5 -8 9 -55 9
-106 0 -83 -2 -92 -20 -98 -35 -11 -57 4 -75 51 -9 25 -27 52 -40 60 -44 29
-108 2 -92 -39 3 -8 51 -39 106 -67 153 -78 192 -136 168 -247 -16 -79 -146
-161 -218 -138 -12 4 -50 7 -85 7 -37 0 -67 4 -72 11 -15 19 -22 203 -9 216
18 18 67 13 73 -6 14 -48 48 -102 70 -112 63 -28 116 -3 98 47 -7 19 -32 38
-96 72 -137 72 -168 110 -168 205 0 51 3 59 41 100 23 25 56 49 73 54 51 14
226 7 237 -10z m-4370 -10 c41 -9 62 -21 100 -59 50 -50 69 -95 69 -166 0 -51
-7 -54 -97 -49 -37 3 -107 7 -155 9 l-88 5 0 -25 c0 -33 26 -93 52 -121 29
-31 79 -44 124 -31 26 7 43 21 62 53 28 45 56 57 80 33 45 -45 -48 -201 -141
-235 -94 -34 -212 2 -272 85 -42 58 -59 130 -53 224 9 144 87 250 203 279 44
10 59 10 116 -2z m3608 -16 c9 -17 11 -17 45 0 42 19 98 22 128 6 11 -6 26
-26 34 -45 12 -29 12 -39 0 -68 -20 -48 -66 -63 -118 -38 -37 19 -38 19 -55 0
-14 -16 -17 -37 -15 -136 1 -64 5 -136 8 -159 6 -41 7 -42 47 -45 34 -3 42 -7
50 -31 17 -51 -1 -57 -176 -64 l-157 -6 0 40 c0 42 11 53 51 53 18 0 19 8 19
128 0 70 -3 151 -6 179 -6 49 -8 52 -31 47 -30 -8 -53 11 -53 46 0 24 9 31 88
68 96 45 126 50 141 25z m-3071 -18 c43 -20 56 -32 72 -67 17 -38 18 -59 13
-217 l-6 -175 31 23 c45 31 66 25 70 -22 2 -28 8 -37 21 -37 10 0 23 6 29 13
6 7 12 84 14 177 l3 165 -25 3 c-35 5 -50 20 -50 52 0 25 7 30 95 63 75 29
101 34 120 27 14 -5 25 -17 25 -26 0 -16 1 -16 18 -1 25 23 96 32 131 17 36
-14 64 -69 55 -105 -10 -40 -53 -68 -93 -61 -18 3 -42 13 -53 22 -17 17 -20
17 -35 1 -20 -20 -31 -97 -32 -224 -1 -114 2 -123 45 -123 39 0 58 -26 48 -65
l-6 -25 -133 0 c-169 0 -195 5 -195 36 0 31 -6 30 -54 -6 -54 -41 -116 -42
-155 -2 l-28 28 -44 -23 c-123 -63 -254 3 -252 127 1 102 43 145 206 210 l92
37 -1 43 c-1 47 -14 60 -61 60 -36 0 -53 -21 -53 -68 0 -38 -32 -66 -76 -66
-93 0 -104 130 -15 193 65 46 198 54 279 16z m2752 -13 c30 -19 54 -44 72 -77
28 -52 45 -132 31 -146 -5 -5 -83 -11 -175 -15 l-166 -7 13 -42 c25 -83 73
-125 143 -125 36 0 49 5 73 31 16 17 32 42 35 54 8 32 32 39 62 19 21 -14 23
-21 18 -56 -10 -58 -40 -111 -88 -152 -133 -114 -328 -46 -382 132 -24 77 -18
196 12 263 62 141 226 197 352 121z m-366 12 c10 -4 16 -18 16 -40 0 -27 -5
-36 -24 -44 -25 -9 -36 -33 -157 -359 -54 -145 -68 -165 -110 -154 -10 3 -33
43 -57 96 -179 411 -172 398 -219 409 -19 5 -21 3 -13 -18 5 -13 10 -100 10
-194 1 -93 5 -170 9 -170 4 0 16 9 26 20 22 24 60 26 69 4 13 -33 5 -57 -32
-95 -70 -71 -144 -85 -192 -34 l-22 23 -50 -26 c-122 -63 -242 -11 -255 111
-12 103 58 174 250 251 32 13 37 19 37 46 0 49 -16 70 -53 70 -45 0 -53 -9
-60 -60 -7 -53 -34 -80 -83 -80 -50 0 -77 33 -71 89 6 54 31 89 88 121 39 22
56 25 140 25 95 0 98 -1 138 -33 40 -32 41 -33 41 -9 0 42 16 47 157 47 l133
0 6 -25 c8 -33 -1 -56 -26 -62 -11 -3 -20 -13 -20 -22 0 -26 83 -212 91 -204
10 11 79 201 79 218 0 7 -10 15 -22 17 -18 2 -24 11 -26 36 -3 26 1 34 20 41
26 11 158 14 182 5z m-1138 -32 c69 -36 111 -98 121 -180 4 -35 1 -51 -9 -60
-10 -7 -69 -12 -176 -14 l-161 -3 19 -54 c25 -76 56 -103 122 -108 61 -4 73 3
111 65 30 46 54 53 81 23 20 -22 15 -52 -19 -121 -28 -56 -57 -83 -115 -109
-91 -41 -181 -23 -257 53 -66 66 -87 132 -81 250 8 142 72 235 186 273 49 17
130 10 178 -15z"/>
<path d="M4207 7153 l-88 -86 33 -34 c38 -40 83 -44 134 -12 75 46 95 131 46
187 -16 18 -31 32 -33 32 -2 0 -44 -39 -92 -87z m118 7 c10 -31 -3 -57 -47
-95 -47 -39 -63 -43 -90 -18 -18 16 -17 19 39 75 60 61 87 71 98 38z"/>
<path d="M4240 7115 c-68 -68 -63 -71 9 -6 30 28 59 47 64 44 6 -3 7 -1 3 5
-12 19 -19 15 -76 -43z"/>
<path d="M4347 7013 l-88 -87 44 -44 c34 -34 48 -42 61 -35 14 8 12 13 -14 38
-37 35 -37 44 -2 78 32 31 47 34 56 10 6 -15 8 -15 23 0 16 16 16 18 -2 31
-18 13 -18 16 -5 30 14 14 18 14 38 0 21 -15 32 -42 12 -29 -6 4 -5 -4 1 -19
10 -21 15 -23 30 -15 25 13 24 18 -1 12 -11 -3 -20 0 -20 6 0 6 6 11 14 11 29
0 24 18 -17 58 l-42 41 -88 -86z"/>
<path d="M4360 7082 c0 -6 -12 -25 -27 -44 -22 -27 -23 -29 -4 -13 27 23 45
54 37 63 -3 3 -6 0 -6 -6z"/>
<path d="M4120 7032 c0 -18 78 -64 102 -59 21 4 21 4 -4 6 -15 0 -43 15 -63
32 -19 17 -35 27 -35 21z"/>
<path d="M4435 7020 c3 -5 8 -10 11 -10 2 0 4 5 4 10 0 6 -5 10 -11 10 -5 0
-7 -4 -4 -10z"/>
<path d="M4270 6995 c-14 -8 -20 -14 -14 -15 5 0 19 7 30 15 24 18 16 19 -16
0z"/>
<path d="M4349 6943 l-24 -28 28 25 28 25 18 -23 c16 -21 19 -22 31 -8 11 14
11 16 -2 11 -8 -3 -21 1 -28 10 -17 21 -23 19 -51 -12z"/>
<path d="M4515 6933 c-13 -12 -16 -28 -12 -62 7 -64 -5 -91 -43 -91 -23 0 -31
5 -36 25 -6 25 -28 33 -39 15 -8 -13 21 -66 40 -74 70 -26 115 15 115 105 0
61 11 79 36 58 10 -8 13 -21 9 -41 -7 -32 2 -35 31 -12 18 14 18 15 -3 4 -14
-6 -23 -7 -23 -1 0 5 9 13 20 16 25 8 25 16 -1 49 -24 30 -69 35 -94 9z"/>
<path d="M4273 6879 c17 -26 78 -76 76 -62 0 4 -21 26 -47 48 -34 30 -41 34
-29 14z"/>
<path d="M4550 6896 c0 -2 7 -7 16 -10 8 -3 12 -2 9 4 -6 10 -25 14 -25 6z"/>
<path d="M4645 6859 c-5 -6 -1 -16 9 -21 9 -5 16 -13 16 -19 0 -5 -33 -43 -74
-84 -73 -71 -74 -74 -55 -91 27 -24 24 -41 -3 -18 -22 19 -23 19 -8 -1 8 -11
15 -21 16 -23 1 -2 36 32 77 75 73 76 76 77 95 60 18 -17 20 -17 33 0 13 16
12 17 -2 5 -14 -10 -18 -10 -23 3 -10 27 -30 16 -96 -50 -35 -35 -66 -62 -69
-59 -7 7 131 144 145 144 7 0 15 -8 18 -17 6 -15 8 -15 22 -1 15 14 12 20 -31
59 -55 51 -61 54 -70 38z"/>
<path d="M4380 6763 c0 -6 8 -17 18 -24 16 -13 16 -13 2 6 -8 11 -16 22 -17
24 -2 2 -3 0 -3 -6z"/>
<path d="M4697 6663 l-89 -87 23 -18 c12 -10 19 -21 16 -25 -4 -3 -13 0 -22 7
-13 11 -14 10 -9 -4 10 -25 22 -20 70 29 55 57 58 73 4 20 -22 -21 -40 -35
-40 -29 0 11 72 84 83 84 14 0 7 -30 -20 -84 -23 -47 -25 -57 -13 -71 12 -14
17 -10 41 42 16 32 28 63 29 69 0 6 13 9 30 6 34 -5 70 20 70 47 0 13 -73 101
-82 101 -2 0 -43 -39 -91 -87z m123 7 c11 -20 4 -30 -20 -30 -27 0 -45 27 -30
44 14 17 37 11 50 -14z"/>
<path d="M4780 6671 c0 -5 7 -11 15 -15 8 -3 15 -1 15 3 0 5 -7 11 -15 15 -8
3 -15 1 -15 -3z"/>
<path d="M4500 6730 c-9 -6 -10 -10 -3 -10 6 0 15 5 18 10 8 12 4 12 -15 0z"/>
<path d="M4430 6720 c8 -5 24 -10 34 -10 26 0 18 6 -19 14 -22 5 -26 4 -15 -4z"/>
<path d="M4820 6580 c-8 -5 -10 -10 -5 -10 6 0 17 5 25 10 8 5 11 10 5 10 -5
0 -17 -5 -25 -10z"/>
<path d="M4776 6564 c-5 -14 -4 -15 9 -4 17 14 19 20 6 20 -5 0 -12 -7 -15
-16z"/>
<path d="M4858 6555 c-20 -13 -45 -40 -57 -58 -67 -108 33 -178 130 -90 69 62
86 116 49 153 -27 27 -77 25 -122 -5z m100 -33 c5 -30 -40 -89 -84 -110 -31
-14 -36 -15 -50 0 -23 22 -11 49 42 98 50 46 87 51 92 12z"/>
<path d="M4864 6488 l-29 -33 33 29 c30 28 37 36 29 36 -2 0 -16 -15 -33 -32z"/>
<path d="M4756 6523 c-6 -14 -5 -15 5 -6 7 7 10 15 7 18 -3 3 -9 -2 -12 -12z"/>
<path d="M4736 6485 c-9 -26 -7 -32 5 -12 6 10 9 21 6 23 -2 3 -7 -2 -11 -11z"/>
<path d="M5020 6415 c-23 -73 -25 -76 -63 -86 -22 -6 -48 -11 -58 -12 -24 -2
-24 -9 1 -32 14 -12 23 -15 32 -8 7 6 31 16 53 23 56 18 175 71 175 79 0 3 -9
12 -20 19 -11 7 -20 8 -20 4 0 -9 -44 -32 -60 -32 -15 0 -12 31 5 64 9 16 14
30 13 30 -2 1 -10 7 -19 14 -14 10 -19 2 -39 -63z"/>
<path d="M4696 6456 c6 -15 34 -30 34 -18 0 4 -9 13 -20 19 -16 11 -18 10 -14
-1z"/>
<path d="M5071 6423 c-1 -6 -4 -20 -7 -30 -5 -17 -5 -17 6 0 6 10 9 23 6 30
-3 9 -5 9 -5 0z"/>
<path d="M4950 6402 c0 -4 -12 -15 -27 -24 -16 -10 -23 -18 -18 -18 6 0 24 11
40 25 17 13 24 24 18 25 -7 0 -13 -3 -13 -8z"/>
<path d="M4770 6383 c13 -29 41 -43 77 -42 23 1 21 3 -11 9 -22 4 -47 18 -58
31 -18 23 -19 23 -8 2z"/>
<path d="M5055 6309 c-22 -10 -29 -16 -15 -13 28 7 80 33 65 33 -5 0 -28 -9
-50 -20z"/>
<path d="M4900 6257 c14 -14 23 -18 28 -11 4 6 17 15 30 19 13 4 21 9 18 12
-2 3 -18 -2 -34 -10 -26 -12 -33 -12 -46 -1 -9 8 -7 4 4 -9z"/>
<path d="M5230 6205 c-22 -71 -26 -76 -59 -85 -20 -5 -46 -10 -58 -10 -27 0
-29 -7 -8 -30 15 -16 21 -15 103 14 48 18 104 41 124 52 33 17 35 21 23 38
-13 18 -15 18 -41 -3 -15 -11 -35 -21 -45 -21 -16 0 -17 4 -7 33 6 17 14 37
19 42 7 9 -11 45 -23 45 -2 0 -15 -34 -28 -75z"/>
<path d="M5281 6213 c-1 -6 -4 -20 -7 -30 -5 -17 -5 -17 6 0 6 10 9 23 6 30
-3 9 -5 9 -5 0z"/>
<path d="M5270 6100 c-9 -6 -10 -10 -3 -10 6 0 15 5 18 10 8 12 4 12 -15 0z"/>
<path d="M5329 6086 c-46 -31 -79 -87 -79 -131 0 -46 40 -69 93 -54 41 11 113
85 123 125 19 73 -65 110 -137 60z m99 -39 c3 -23 -5 -38 -42 -73 -51 -48 -90
-58 -101 -24 -8 26 6 49 55 94 50 45 83 46 88 3z"/>
<path d="M5388 6053 c6 -2 18 -2 25 0 6 3 1 5 -13 5 -14 0 -19 -2 -12 -5z"/>
<path d="M5334 6018 l-29 -33 33 29 c30 28 37 36 29 36 -2 0 -16 -15 -33 -32z"/>
<path d="M5171 6069 c-18 -6 -31 -12 -29 -14 5 -5 78 14 78 20 0 6 -8 5 -49
-6z"/>
<path d="M5096 6056 c3 -8 13 -17 21 -20 25 -10 23 -3 -3 17 -18 13 -22 14
-18 3z"/>
<path d="M5443 5920 c-40 -43 -73 -85 -73 -94 0 -24 50 -76 74 -76 14 0 50 28
99 78 66 66 76 81 64 91 -12 10 -27 -1 -86 -61 -60 -61 -74 -71 -89 -62 -32
20 -23 40 47 107 44 43 68 73 64 82 -9 26 -26 15 -100 -65z"/>
<path d="M5449 5963 c-13 -16 -12 -17 4 -4 9 7 17 15 17 17 0 8 -8 3 -21 -13z"/>
<path d="M5391 5910 c-24 -17 -40 -30 -36 -30 10 0 85 50 85 56 0 7 -4 5 -49
-26z"/>
<path d="M5475 5878 l-60 -63 65 60 c35 33 66 61 69 63 2 1 0 2 -5 2 -5 0 -36
-28 -69 -62z"/>
<path d="M5279 5877 c5 -5 21 -7 37 -5 27 3 26 4 -8 9 -22 3 -34 1 -29 -4z"/>
<path d="M5540 5805 c-35 -36 -70 -65 -77 -65 -7 0 -13 -4 -13 -9 0 -21 39 7
99 71 36 37 62 68 60 68 -3 0 -34 -29 -69 -65z"/>
<path d="M5577 5783 l-89 -87 23 -18 c12 -10 19 -21 16 -25 -4 -3 -13 0 -22 7
-13 11 -14 10 -9 -4 10 -25 22 -20 70 29 55 57 58 73 4 20 -22 -21 -40 -35
-40 -29 0 11 72 84 83 84 14 0 7 -30 -20 -85 -24 -49 -26 -57 -12 -70 13 -14
18 -8 44 53 27 64 30 68 57 64 32 -5 68 20 68 47 0 13 -73 101 -82 101 -2 0
-43 -39 -91 -87z m123 7 c11 -20 4 -30 -20 -30 -27 0 -45 27 -30 44 14 17 37
11 50 -14z"/>
<path d="M5660 5791 c0 -5 7 -11 15 -15 8 -3 15 -1 15 3 0 5 -7 11 -15 15 -8
3 -15 1 -15 -3z"/>
<path d="M5393 5748 c11 -10 27 -18 36 -17 10 0 7 4 -8 10 -14 5 -30 13 -36
17 -6 4 -2 -1 8 -10z"/>
<path d="M5688 5703 c-14 -2 -29 -11 -32 -18 -4 -11 -1 -13 12 -6 9 5 28 14
42 19 26 11 23 12 -22 5z"/>
<path d="M5782 5562 l-82 -86 32 -33 c24 -25 40 -33 67 -33 78 0 166 100 142
160 -9 24 -58 80 -68 78 -4 0 -45 -39 -91 -86z m112 22 c25 -24 19 -51 -20
-94 -44 -49 -77 -59 -105 -34 -19 18 -19 19 43 81 34 35 63 63 64 63 2 0 10
-7 18 -16z"/>
<path d="M5820 5525 c-30 -30 -51 -55 -48 -55 4 0 29 23 57 51 31 31 55 48 62
43 8 -4 9 -3 5 4 -12 19 -19 15 -76 -43z"/>
<path d="M5622 5615 c-17 -37 -14 -45 4 -12 9 16 14 31 11 33 -2 2 -9 -7 -15
-21z"/>
<path d="M5576 5576 c6 -15 34 -30 34 -18 0 4 -9 13 -20 19 -16 11 -18 10 -14
-1z"/>
<path d="M5938 5424 c-48 -48 -85 -90 -82 -95 3 -5 13 -13 23 -19 14 -7 23 -4
37 13 l19 22 -22 -19 c-38 -32 -25 -2 16 38 56 54 67 39 29 -39 -29 -58 -31
-67 -17 -80 13 -14 18 -8 44 54 28 66 31 69 58 64 31 -6 67 19 67 46 -1 14
-70 101 -81 101 -2 0 -43 -39 -91 -86z m127 -5 c0 -19 -27 -22 -50 -5 -16 12
-17 16 -6 30 12 14 17 15 35 3 12 -8 21 -21 21 -28z"/>
<path d="M6020 5436 c0 -2 7 -9 15 -16 9 -7 15 -8 15 -2 0 5 -7 12 -15 16 -8
3 -15 4 -15 2z"/>
<path d="M5922 5460 c-12 -16 -39 -39 -60 -49 -20 -11 -33 -20 -29 -21 24 -1
91 50 108 83 15 26 5 20 -19 -13z"/>
<path d="M5737 5413 c22 -22 42 -33 60 -32 27 1 26 1 -5 9 -19 4 -46 18 -61
31 -15 13 -12 9 6 -8z"/>
<path d="M5950 5365 c-7 -9 -11 -17 -9 -20 3 -2 10 5 17 15 14 24 10 26 -8 5z"/>
<path d="M6077 5282 l-88 -86 44 -44 c34 -34 48 -42 61 -35 14 8 12 13 -14 38
-37 35 -37 44 -2 78 34 32 36 33 62 7 24 -24 24 -27 5 -33 -11 -4 -10 -4 2 -3
23 2 26 56 4 73 -14 11 -14 14 2 30 18 17 19 17 42 -9 23 -27 55 -38 55 -18 0
9 -40 53 -71 77 -12 10 -30 -3 -102 -75z"/>
<path d="M6033 5333 c9 -2 23 -2 30 0 6 3 -1 5 -18 5 -16 0 -22 -2 -12 -5z"/>
<path d="M6002 5295 c-17 -37 -14 -45 4 -12 9 16 14 31 11 33 -2 2 -9 -7 -15
-21z"/>
<path d="M5850 5301 c0 -9 30 -24 36 -18 2 1 -6 8 -16 15 -11 7 -20 8 -20 3z"/>
<path d="M6189 5268 c19 -21 39 -34 45 -31 6 4 4 8 -4 11 -8 3 -28 16 -45 31
-26 23 -26 21 4 -11z"/>
<path d="M5975 5239 c-4 -6 -5 -12 -2 -15 2 -3 7 2 10 11 7 17 1 20 -8 4z"/>
<path d="M6079 5213 l-24 -28 27 24 c16 13 32 20 39 16 8 -5 10 -4 5 3 -11 18
-20 15 -47 -15z"/>
<path d="M5930 5222 c0 -4 9 -13 20 -20 11 -7 20 -9 20 -4 0 4 -9 13 -20 20
-11 7 -20 9 -20 4z"/>
<path d="M6299 5223 c-7 -18 -163 -116 -195 -123 -29 -7 -36 -3 -70 31 -21 21
-39 37 -41 35 -8 -8 79 -84 91 -80 7 3 23 -7 36 -21 24 -25 16 -35 -10 -12 -8
6 -6 2 4 -10 16 -19 21 -21 30 -8 6 7 31 25 56 39 25 14 39 26 32 26 -7 0 -30
-11 -52 -25 -53 -33 -52 -15 1 19 70 47 90 19 38 -52 -32 -43 -31 -55 1 -72
15 -8 18 -7 14 4 -6 17 83 159 95 152 5 -3 15 2 22 12 13 15 12 16 -3 3 -22
-16 -24 1 -4 22 13 13 11 18 -13 42 -16 14 -30 23 -32 18z m-9 -78 c-7 -8 -16
-12 -21 -9 -13 8 -1 24 18 24 13 0 13 -3 3 -15z"/>
<path d="M6298 5073 c-54 -82 -60 -93 -55 -93 4 0 18 20 71 103 10 15 16 27
13 27 -2 0 -15 -17 -29 -37z"/>
<path d="M6337 5023 c-71 -70 -85 -89 -75 -100 9 -12 22 -3 74 48 67 66 90 73
56 16 -28 -49 -15 -64 32 -36 61 35 55 12 -13 -54 l-63 -61 22 -18 c13 -10 20
-21 17 -25 -4 -3 -13 0 -22 7 -8 7 -15 8 -15 2 0 -5 7 -13 16 -16 11 -4 42 19
101 79 46 47 81 85 76 85 -4 0 -39 -31 -77 -70 -38 -38 -72 -67 -75 -64 -3 3
33 43 79 88 65 64 82 86 73 95 -15 14 -43 14 -77 1 -25 -9 -25 -9 -23 47 1 31
-2 57 -8 59 -5 2 -49 -35 -98 -83z"/>
<path d="M6354 4968 l-19 -23 23 19 c12 11 22 21 22 23 0 8 -8 2 -26 -19z"/>
<path d="M6202 4954 c10 -10 20 -16 22 -13 3 3 -5 11 -17 18 -21 13 -21 12 -5
-5z"/>
<path d="M6304 4918 l-19 -23 25 20 c14 11 27 21 29 22 2 2 0 3 -6 3 -5 0 -18
-10 -29 -22z"/>
<path d="M6415 4926 c-11 -8 -26 -11 -34 -8 -9 3 -12 1 -7 -6 10 -16 17 -15
46 8 28 22 24 27 -5 6z"/>
<path d="M6549 4899 c-6 -12 -9 -40 -6 -62 7 -54 -6 -87 -37 -87 -26 0 -42 15
-47 43 -4 16 -6 16 -23 4 -17 -13 -17 -15 -2 -44 26 -52 90 -61 126 -18 8 10
17 48 20 84 4 50 9 66 20 66 8 0 19 -10 25 -22 11 -27 18 -28 34 -9 8 10 6 19
-10 40 -27 34 -83 37 -100 5z"/>
<path d="M6250 4901 c0 -9 30 -24 36 -18 2 1 -6 8 -16 15 -11 7 -20 8 -20 3z"/>
<path d="M6590 4866 c0 -2 7 -7 16 -10 8 -3 12 -2 9 4 -6 10 -25 14 -25 6z"/>
<path d="M6620 4820 c0 -5 5 -10 11 -10 5 0 7 5 4 10 -3 6 -8 10 -11 10 -2 0
-4 -4 -4 -10z"/>
<path d="M6488 4683 c6 -2 18 -2 25 0 6 3 1 5 -13 5 -14 0 -19 -2 -12 -5z"/>
<path d="M3423 1714 c-14 -14 -24 -27 -22 -28 2 -2 34 -6 72 -9 60 -4 67 -3
67 14 0 22 -37 49 -68 49 -12 0 -34 -12 -49 -26z"/>
<path d="M3975 1503 c-80 -41 -109 -105 -64 -137 21 -14 28 -14 82 6 26 10 27
13 27 79 0 38 -3 69 -7 69 -5 -1 -21 -8 -38 -17z"/>
<path d="M6664 1708 c-12 -5 -27 -21 -33 -34 -10 -23 -10 -24 37 -24 55 0 92
9 92 21 0 16 -40 49 -57 48 -10 0 -28 -5 -39 -11z"/>
<path d="M5707 1460 c-56 -36 -75 -69 -59 -104 13 -29 39 -36 83 -22 l34 11 3
73 c2 39 -1 72 -5 72 -4 0 -30 -14 -56 -30z"/>
<path d="M5162 1670 c-12 -12 -22 -25 -22 -30 0 -6 32 -10 71 -10 73 0 75 2
41 43 -20 23 -63 22 -90 -3z"/>
</g>
</svg>
